{
    "asset" : {
        "generator" : "Khronos glTF Blender I/O v1.1.46",
        "version" : "2.0"
    },
    "scene" : 0,
    "scenes" : [
        {
            "name" : "Scene",
            "nodes" : [
                0,
                1,
                2,
                3
            ]
        }
    ],
    "nodes" : [
        {
            "mesh" : 0,
            "name" : "Cube"
        },
        {
            "name" : "Camera",
            "rotation" : [
                0.6685590744018555,
                0.18680499494075775,
                -0.1791398525238037,
                0.6971668004989624
            ],
            "translation" : [
                6.430749416351318,
                0.6888189911842346,
                12.71627426147461
            ]
        },
        {
            "name" : "Sun",
            "translation" : [
                -0.045285582542419434,
                3.528897523880005,
                -0.16221141815185547
            ]
        },
        {
            "name" : "Plane",
            "scale" : [
                4.196028709411621,
                4.196028709411621,
                4.196028709411621
            ],
            "translation" : [
                0.03145623207092285,
                -0.6894603967666626,
                0.4327874183654785
            ]
        }
    ],
    "materials" : [
        {
            "doubleSided" : true,
            "emissiveFactor" : [
                0,
                0,
                0
            ],
            "name" : "Material.002",
            "pbrMetallicRoughness" : {
                "baseColorFactor" : [
                    0.017524445429444313,
                    0.021778341382741928,
                    0.3423832356929779,
                    1
                ],
                "metallicFactor" : 0,
                "roughnessFactor" : 0.5
            }
        },
        {
            "doubleSided" : true,
            "emissiveFactor" : [
                0,
                0,
                0
            ],
            "name" : "Material.008",
            "pbrMetallicRoughness" : {
                "baseColorFactor" : [
                    0.800000011920929,
                    0.800000011920929,
                    0.800000011920929,
                    1
                ],
                "metallicFactor" : 0,
                "roughnessFactor" : 0.5
            }
        }
    ],
    "meshes" : [
        {
            "name" : "Cube",
            "primitives" : [
                {
                    "attributes" : {
                        "POSITION" : 0,
                        "NORMAL" : 1,
                        "TEXCOORD_0" : 2
                    },
                    "indices" : 3,
                    "material" : 0
                },
                {
                    "attributes" : {
                        "POSITION" : 4,
                        "NORMAL" : 5,
                        "TEXCOORD_0" : 6
                    },
                    "indices" : 7,
                    "material" : 1
                },
                {
                    "attributes" : {
                        "POSITION" : 8,
                        "NORMAL" : 9,
                        "TEXCOORD_0" : 10
                    },
                    "indices" : 11
                },
                {
                    "attributes" : {
                        "POSITION" : 12,
                        "NORMAL" : 13,
                        "TEXCOORD_0" : 14
                    },
                    "indices" : 15
                },
                {
                    "attributes" : {
                        "POSITION" : 16,
                        "NORMAL" : 17,
                        "TEXCOORD_0" : 18
                    },
                    "indices" : 19
                }
            ]
        }
    ],
    "accessors" : [
        {
            "bufferView" : 0,
            "componentType" : 5126,
            "count" : 4038,
            "max" : [
                1.0938090085983276,
                0.5974168181419373,
                2.5568830966949463
            ],
            "min" : [
                -1.0938090085983276,
                -0.5704153776168823,
                -2.5214529037475586
            ],
            "type" : "VEC3"
        },
        {
            "bufferView" : 1,
            "componentType" : 5126,
            "count" : 4038,
            "type" : "VEC3"
        },
        {
            "bufferView" : 2,
            "componentType" : 5126,
            "count" : 4038,
            "type" : "VEC2"
        },
        {
            "bufferView" : 3,
            "componentType" : 5123,
            "count" : 6288,
            "type" : "SCALAR"
        },
        {
            "bufferView" : 4,
            "componentType" : 5126,
            "count" : 8,
            "max" : [
                0.9878617525100708,
                0.1678190976381302,
                2.2893483638763428
            ],
            "min" : [
                -0.9878617525100708,
                -0.0053900256752967834,
                2.2817471027374268
            ],
            "type" : "VEC3"
        },
        {
            "bufferView" : 5,
            "componentType" : 5126,
            "count" : 8,
            "type" : "VEC3"
        },
        {
            "bufferView" : 6,
            "componentType" : 5126,
            "count" : 8,
            "type" : "VEC2"
        },
        {
            "bufferView" : 7,
            "componentType" : 5123,
            "count" : 12,
            "type" : "SCALAR"
        },
        {
            "bufferView" : 8,
            "componentType" : 5126,
            "count" : 1302,
            "max" : [
                1.0424872636795044,
                0.15795224905014038,
                2.3993301391601562
            ],
            "min" : [
                -1.0424872636795044,
                -0.6695308685302734,
                -1.44027841091156
            ],
            "type" : "VEC3"
        },
        {
            "bufferView" : 9,
            "componentType" : 5126,
            "count" : 1302,
            "type" : "VEC3"
        },
        {
            "bufferView" : 10,
            "componentType" : 5126,
            "count" : 1302,
            "type" : "VEC2"
        },
        {
            "bufferView" : 11,
            "componentType" : 5123,
            "count" : 1956,
            "type" : "SCALAR"
        },
        {
            "bufferView" : 12,
            "componentType" : 5126,
            "count" : 5804,
            "max" : [
                1.0938090085983276,
                0.569181501865387,
                2.5568830966949463
            ],
            "min" : [
                -1.0938090085983276,
                -0.6690544486045837,
                -2.4387381076812744
            ],
            "type" : "VEC3"
        },
        {
            "bufferView" : 13,
            "componentType" : 5126,
            "count" : 5804,
            "type" : "VEC3"
        },
        {
            "bufferView" : 14,
            "componentType" : 5126,
            "count" : 5804,
            "type" : "VEC2"
        },
        {
            "bufferView" : 15,
            "componentType" : 5123,
            "count" : 8952,
            "type" : "SCALAR"
        },
        {
            "bufferView" : 16,
            "componentType" : 5126,
            "count" : 8,
            "max" : [
                0.9879671931266785,
                0.13326582312583923,
                -2.392268180847168
            ],
            "min" : [
                -0.9879671931266785,
                -0.010513655841350555,
                -2.3923540115356445
            ],
            "type" : "VEC3"
        },
        {
            "bufferView" : 17,
            "componentType" : 5126,
            "count" : 8,
            "type" : "VEC3"
        },
        {
            "bufferView" : 18,
            "componentType" : 5126,
            "count" : 8,
            "type" : "VEC2"
        },
        {
            "bufferView" : 19,
            "componentType" : 5123,
            "count" : 12,
            "type" : "SCALAR"
        }
    ],
    "bufferViews" : [
        {
            "buffer" : 0,
            "byteLength" : 48456,
            "byteOffset" : 0
        },
        {
            "buffer" : 0,
            "byteLength" : 48456,
            "byteOffset" : 48456
        },
        {
            "buffer" : 0,
            "byteLength" : 32304,
            "byteOffset" : 96912
        },
        {
            "buffer" : 0,
            "byteLength" : 12576,
            "byteOffset" : 129216
        },
        {
            "buffer" : 0,
            "byteLength" : 96,
            "byteOffset" : 141792
        },
        {
            "buffer" : 0,
            "byteLength" : 96,
            "byteOffset" : 141888
        },
        {
            "buffer" : 0,
            "byteLength" : 64,
            "byteOffset" : 141984
        },
        {
            "buffer" : 0,
            "byteLength" : 24,
            "byteOffset" : 142048
        },
        {
            "buffer" : 0,
            "byteLength" : 15624,
            "byteOffset" : 142072
        },
        {
            "buffer" : 0,
            "byteLength" : 15624,
            "byteOffset" : 157696
        },
        {
            "buffer" : 0,
            "byteLength" : 10416,
            "byteOffset" : 173320
        },
        {
            "buffer" : 0,
            "byteLength" : 3912,
            "byteOffset" : 183736
        },
        {
            "buffer" : 0,
            "byteLength" : 69648,
            "byteOffset" : 187648
        },
        {
            "buffer" : 0,
            "byteLength" : 69648,
            "byteOffset" : 257296
        },
        {
            "buffer" : 0,
            "byteLength" : 46432,
            "byteOffset" : 326944
        },
        {
            "buffer" : 0,
            "byteLength" : 17904,
            "byteOffset" : 373376
        },
        {
            "buffer" : 0,
            "byteLength" : 96,
            "byteOffset" : 391280
        },
        {
            "buffer" : 0,
            "byteLength" : 96,
            "byteOffset" : 391376
        },
        {
            "buffer" : 0,
            "byteLength" : 64,
            "byteOffset" : 391472
        },
        {
            "buffer" : 0,
            "byteLength" : 24,
            "byteOffset" : 391536
        }
    ],
    "buffers" : [
        {
            "byteLength" : 391560,
            "uri" : "data:application/octet-stream;base64,"
        }
    ]
}
